<?xml version="1.0" encoding="UTF-8" standalone="no"?>
<!-- Created with Inkscape (http://www.inkscape.org/) -->

<svg
   width="188.97638"
   height="188.97638"
   viewBox="0 0 50 50"
   version="1.1"
   id="svg1"
   inkscape:version="1.3 (0e150ed6c4, 2023-07-21)"
   sodipodi:docname="languessr.svg"
   xmlns:inkscape="http://www.inkscape.org/namespaces/inkscape"
   xmlns:sodipodi="http://sodipodi.sourceforge.net/DTD/sodipodi-0.dtd"
   xmlns="http://www.w3.org/2000/svg"
   xmlns:svg="http://www.w3.org/2000/svg">
  <sodipodi:namedview
     id="namedview1"
     pagecolor="#ffffff"
     bordercolor="#000000"
     borderopacity="0.25"
     inkscape:showpageshadow="2"
     inkscape:pageopacity="0.0"
     inkscape:pagecheckerboard="0"
     inkscape:deskcolor="#d1d1d1"
     inkscape:document-units="mm"
     showgrid="true"
     inkscape:zoom="1.4142136"
     inkscape:cx="79.903066"
     inkscape:cy="73.892659"
     inkscape:window-width="1920"
     inkscape:window-height="974"
     inkscape:window-x="-11"
     inkscape:window-y="-11"
     inkscape:window-maximized="1"
     inkscape:current-layer="layer1">
    <inkscape:grid
       id="grid1"
       units="mm"
       originx="0"
       originy="0"
       spacingx="1"
       spacingy="1"
       empcolor="#0099e5"
       empopacity="0.30196078"
       color="#0099e5"
       opacity="0.14901961"
       empspacing="5"
       dotted="false"
       gridanglex="30"
       gridanglez="30"
       visible="true" />
  </sodipodi:namedview>
  <defs
     id="defs1">
    <inkscape:path-effect
       effect="mirror_symmetry"
       start_point="25.2,18.083"
       end_point="25.2,38.082999"
       center_point="25.2,28.082999"
       id="path-effect13"
       is_visible="true"
       lpeversion="1.2"
       lpesatellites=""
       mode="free"
       discard_orig_path="false"
       fuse_paths="false"
       oposite_fuse="false"
       split_items="false"
       split_open="false"
       link_styles="false" />
    <inkscape:path-effect
       effect="mirror_symmetry"
       start_point="25,38.082999"
       end_point="25,18.083"
       center_point="25,28.082999"
       id="path-effect12"
       is_visible="true"
       lpeversion="1.2"
       lpesatellites=""
       mode="free"
       discard_orig_path="false"
       fuse_paths="false"
       oposite_fuse="false"
       split_items="false"
       split_open="false"
       link_styles="false" />
    <inkscape:path-effect
       effect="mirror_symmetry"
       start_point="24.92,18.082999"
       end_point="24.92,38.082999"
       center_point="24.92,28.082999"
       id="path-effect13-7"
       is_visible="true"
       lpeversion="1.2"
       lpesatellites=""
       mode="free"
       discard_orig_path="false"
       fuse_paths="false"
       oposite_fuse="false"
       split_items="false"
       split_open="false"
       link_styles="false" />
  </defs>
  <g
     inkscape:label="Layer 1"
     inkscape:groupmode="layer"
     id="layer1">
    <path
       style="fill:#ffffff;stroke-width:1.05833;fill-opacity:1"
       d="m 10.577,21.329167 14.340001,11.753831 v 2.354168 L 10.577,23.683334 Z m 29.246,0 -14.340001,11.753831 v 2.354168 L 39.823,23.683334 Z"
       id="path2"
       transform="matrix(1.3482369,0,0,1.3482369,-8.9178959,-8.4362757)"
       sodipodi:nodetypes="ccccc"
       inkscape:original-d="m 10.577,21.329167 14.340001,11.753831 v 2.354168 L 10.577,23.683334 Z"
       inkscape:path-effect="#path-effect13" />
    <path
       d="m 38.369254,24.635648 c -0.0077,-0.05667 -0.01254,-0.114263 -0.0209,-0.170698 -0.03265,-0.221345 -0.07071,-0.440683 -0.114263,-0.6584 -0.04355,-0.217718 -0.09188,-0.433862 -0.146311,-0.647951 -0.05443,-0.214088 -0.114438,-0.426342 -0.179753,-0.636802 -0.06531,-0.21046 -0.1363,-0.418824 -0.212501,-0.625656 -0.0762,-0.20683 -0.158158,-0.412001 -0.245246,-0.615205 -0.08708,-0.203202 -0.1783,-0.40359 -0.273811,-0.600572 -0.09551,-0.196982 -0.194959,-0.390303 -0.298893,-0.581066 -0.103934,-0.190762 -0.212312,-0.378408 -0.32467,-0.562949 -0.112362,-0.184541 -0.228972,-0.366516 -0.349754,-0.544836 -0.120775,-0.178321 -0.24563,-0.353227 -0.374835,-0.525327 C 35.699115,18.294085 35.566028,18.124853 35.428399,17.958972 35.29077,17.793093 35.148755,17.63023 35.002702,17.470571 34.85665,17.310911 34.7064,17.15442 34.551925,17.000981 34.398486,16.846506 34.241993,16.696256 34.082335,16.550204 33.922675,16.404152 33.759812,16.262832 33.593933,16.125203 33.428053,15.987575 33.258821,15.853794 33.08672,15.724589 32.91462,15.595388 32.739713,15.470534 32.561393,15.349754 32.383072,15.228979 32.201795,15.112358 32.017254,15 c -0.184541,-0.112362 -0.372188,-0.220738 -0.56295,-0.324672 -0.190762,-0.103936 -0.38478,-0.203383 -0.581762,-0.298893 -0.196982,-0.09551 -0.39737,-0.186724 -0.600573,-0.273811 -0.203203,-0.08708 -0.408374,-0.169045 -0.615204,-0.245246 -0.206832,-0.0762 -0.415196,-0.146488 -0.625656,-0.211804 -0.21046,-0.06532 -0.422714,-0.125318 -0.636802,-0.179753 -0.214089,-0.05443 -0.430233,-0.103464 -0.647951,-0.147008 -0.217717,-0.04355 -0.437055,-0.08161 -0.6584,-0.114263 -0.221346,-0.03265 -0.444575,-0.05974 -0.66955,-0.08151 -0.224973,-0.02177 -0.451396,-0.03859 -0.679999,-0.04947 -0.228603,-0.01092 -0.458916,-0.01603 -0.691147,-0.01603 -0.232231,0 -0.46324,0.0051 -0.691844,0.01603 -0.228603,0.01092 -0.455024,0.02769 -0.679999,0.04947 -0.224975,0.02177 -0.448202,0.04886 -0.669549,0.08151 -0.221346,0.03265 -0.440684,0.07071 -0.658401,0.114263 -0.217717,0.04355 -0.433861,0.09258 -0.64795,0.147008 -0.214088,0.05443 -0.426343,0.114438 -0.636802,0.179753 -0.21046,0.06531 -0.418825,0.135602 -0.625656,0.211804 -0.206831,0.0762 -0.412001,0.158158 -0.615204,0.245246 -0.203203,0.08708 -0.403462,0.1783 -0.600573,0.273811 -0.197112,0.09551 -0.391438,0.194959 -0.582459,0.298893 -0.191021,0.103936 -0.378717,0.212314 -0.563648,0.324672 -0.184929,0.112362 -0.366692,0.228972 -0.545531,0.349754 -0.17884,0.120775 -0.35467,0.245631 -0.527419,0.374835 -0.172748,0.129202 -0.342644,0.262986 -0.509301,0.400614 -0.166659,0.137629 -0.329926,0.278949 -0.490492,0.425001 -0.160567,0.146052 -0.318598,0.296302 -0.473073,0.450777 -0.15344,0.153439 -0.302848,0.30993 -0.447992,0.46959 -0.145145,0.159659 -0.286058,0.322522 -0.42291,0.488401 -0.13685,0.165881 -0.26927,0.335113 -0.397827,0.507214 -0.128554,0.1721 -0.25318,0.347006 -0.373443,0.525327 -0.120262,0.17832 -0.236391,0.360295 -0.34836,0.544836 -0.111971,0.184541 -0.219603,0.372187 -0.323279,0.562949 -0.103679,0.190763 -0.203512,0.384084 -0.298893,0.581066 -0.09539,0.196982 -0.186027,0.39737 -0.273114,0.600572 -0.08708,0.203204 -0.169044,0.408375 -0.245245,0.615205 -0.0762,0.206832 -0.147186,0.415196 -0.2125,0.625656 -0.06532,0.21046 -0.124631,0.422714 -0.179058,0.636802 -0.05443,0.214089 -0.103464,0.430233 -0.147008,0.647951 -0.04355,0.217717 -0.08161,0.437055 -0.114263,0.6584 -0.008,0.05367 -0.01294,0.108452 -0.02021,0.162337 l 1.674221,1.401106 c 3.35e-4,-0.0088 3.42e-4,-0.01772 6.97e-4,-0.02648 0.0067,-0.166917 0.01647,-0.332616 0.02996,-0.497459 0.01348,-0.164843 0.03065,-0.328418 0.05086,-0.491188 0.02021,-0.16277 0.04341,-0.324918 0.07036,-0.485615 0.02695,-0.160696 0.05757,-0.320024 0.09128,-0.478647 0.03369,-0.158622 0.07035,-0.316524 0.110771,-0.473073 0.04043,-0.156549 0.08451,-0.31163 0.131683,-0.466106 0.04717,-0.154475 0.09798,-0.30813 0.151884,-0.460532 0.109895,-0.304805 0.23045,-0.602388 0.361598,-0.893196 0.131143,-0.290808 0.272598,-0.574581 0.425,-0.851393 0.0762,-0.138406 0.15537,-0.275462 0.236885,-0.410368 0.08151,-0.134907 0.165385,-0.267814 0.252213,-0.399221 0.08683,-0.131413 0.176096,-0.260862 0.268237,-0.388771 0.09214,-0.127907 0.186808,-0.254606 0.284263,-0.379016 h 1.219261 c 0.116111,0 0.228694,0.01065 0.336516,0.03136 0.107819,0.02074 0.21121,0.05189 0.310738,0.09336 0.09953,0.04147 0.195118,0.09316 0.286352,0.15537 0.09124,0.06221 0.17833,0.135133 0.261269,0.218073 0.08294,0.08294 0.155173,0.170035 0.217378,0.261269 0.06221,0.09124 0.113899,0.186128 0.155368,0.285657 0.04147,0.09953 0.07263,0.203612 0.09336,0.311433 0.02074,0.107818 0.03135,0.219703 0.03135,0.33582 v 0.8709 c 0,0.08605 0.0038,0.170408 0.01119,0.253607 0.0074,0.0832 0.01797,0.164898 0.03275,0.245245 0.01478,0.08035 0.03358,0.159389 0.05574,0.236885 0.02217,0.0775 0.0478,0.15388 0.07734,0.228525 0.02955,0.07465 0.06269,0.147673 0.09963,0.219468 0.03694,0.07179 0.0776,0.142162 0.121921,0.211105 0.04432,0.06895 0.09252,0.136653 0.144221,0.202747 0.05171,0.06609 0.107427,0.130442 0.166516,0.193687 l 0.84582,0.883442 c 0.05184,0.05392 0.09698,0.110205 0.13586,0.169304 0.03888,0.05909 0.07162,0.121044 0.09754,0.185328 0.02591,0.06427 0.04487,0.131197 0.05783,0.200656 0.01294,0.06946 0.01951,0.141335 0.01951,0.215983 v 0.42291 c 0,0.06428 0.0038,0.125925 0.01119,0.18463 0.0074,0.0587 0.01867,0.114775 0.03345,0.167909 0.01478,0.05313 0.03288,0.103626 0.05504,0.151189 0.02216,0.04757 0.04848,0.09179 0.07804,0.133772 0.02954,0.04198 0.06269,0.08133 0.09964,0.117742 0.03693,0.03642 0.0776,0.07017 0.121921,0.101023 0.04432,0.03085 0.09252,0.05903 0.144221,0.0843 0.0517,0.02527 0.106726,0.04789 0.165819,0.06759 l 1.679794,0.572007 c 0.09953,0.03318 0.202907,0.05796 0.310738,0.07454 l 2.50053,0.833975 c 0.03318,0.01658 0.06859,0.02864 0.105904,0.03693 0.03732,0.0084 0.07697,0.01254 0.118443,0.01254 h 1.21926 c 0.07465,0 0.139795,0.0092 0.195779,0.02787 0.02799,0.0093 0.05331,0.02084 0.07663,0.03484 0.02332,0.01399 0.04474,0.03081 0.06341,0.04947 0.01866,0.01866 0.03477,0.03938 0.04876,0.06271 0.01399,0.02332 0.02551,0.04934 0.03484,0.07733 0.01866,0.05598 0.02857,0.121139 0.02857,0.195777 v 0.112173 c 0,0.05806 -0.0078,0.108345 -0.0223,0.151886 -0.01451,0.04355 -0.03577,0.08035 -0.0648,0.109383 -0.02903,0.02903 -0.06585,0.05028 -0.109383,0.0648 -0.04353,0.01452 -0.09382,0.0223 -0.151884,0.0223 -0.03732,0 -0.07395,0.003 -0.108681,0.0097 -0.03473,0.0067 -0.06749,0.01718 -0.09963,0.03066 -0.03214,0.01348 -0.06311,0.02994 -0.09266,0.05017 -0.02955,0.02022 -0.05804,0.0441 -0.08501,0.07107 -0.02696,0.02697 -0.05084,0.05475 -0.07107,0.08431 -0.02022,0.02955 -0.03669,0.06052 -0.05017,0.09266 -0.01348,0.03214 -0.02392,0.0656 -0.03066,0.100322 -0.0067,0.03473 -0.0097,0.07068 -0.0097,0.107994 v 1.841433 c 0,0.08087 0.0071,0.159112 0.0216,0.234794 0.01451,0.07569 0.03646,0.148968 0.0655,0.219467 0.02903,0.0705 0.06515,0.138127 0.108681,0.203442 0.04355,0.06531 0.09452,0.127989 0.152581,0.188116 0.06013,0.05806 0.122798,0.109045 0.188116,0.152581 0.06532,0.04355 0.13295,0.07965 0.203442,0.108695 0.0705,0.02903 0.143786,0.05098 0.219466,0.0655 0.07568,0.01452 0.153931,0.0216 0.234796,0.0216 0.04147,0 0.08147,0.0039 0.119831,0.01119 0.03836,0.0073 0.07483,0.01823 0.110083,0.03275 0.03524,0.01451 0.06958,0.03257 0.101725,0.05435 0.02731,0.0185 0.05227,0.04105 0.07733,0.0648 l 3.807579,-3.189588 c -0.01173,-0.03008 -0.02117,-0.06066 -0.02717,-0.09266 -0.0062,-0.03318 -0.009,-0.06787 -0.009,-0.103113 v -0.472376 c 0,-0.06635 -0.0036,-0.130483 -0.01119,-0.192295 -0.0076,-0.06182 -0.0191,-0.121773 -0.03414,-0.179058 -0.01503,-0.05727 -0.03388,-0.111675 -0.05644,-0.164426 -0.02256,-0.05274 -0.04866,-0.103679 -0.07872,-0.151886 -0.03007,-0.04821 -0.06414,-0.09428 -0.101725,-0.13795 -0.03758,-0.04367 -0.07891,-0.08488 -0.12401,-0.124011 -0.0451,-0.03914 -0.09369,-0.07617 -0.146311,-0.110784 -0.05262,-0.0346 -0.109167,-0.06678 -0.169304,-0.09684 l -0.43545,-0.223647 c -0.105743,-0.05184 -0.213026,-0.09768 -0.321885,-0.136558 -0.108857,-0.03888 -0.218973,-0.07093 -0.330943,-0.09684 -0.111971,-0.02593 -0.225616,-0.04557 -0.340695,-0.05853 -0.115085,-0.01294 -0.231565,-0.01951 -0.349754,-0.01951 H 27.36122 c -0.03732,0 -0.07309,-0.0028 -0.107293,-0.009 -0.03422,-0.0062 -0.06713,-0.01542 -0.09823,-0.02787 -0.0311,-0.0124 -0.0605,-0.02802 -0.08848,-0.04668 -0.02799,-0.01866 -0.05455,-0.04061 -0.07943,-0.0655 -0.02487,-0.02695 -0.04684,-0.05458 -0.0655,-0.0836 -0.01866,-0.02903 -0.03424,-0.05947 -0.04668,-0.09057 -0.0124,-0.0311 -0.02165,-0.06298 -0.02787,-0.09614 -0.0062,-0.03318 -0.009,-0.06787 -0.009,-0.103114 0,-0.06221 -0.0081,-0.116379 -0.02369,-0.163032 -0.01554,-0.04665 -0.03857,-0.08525 -0.06968,-0.116353 -0.0311,-0.0311 -0.0697,-0.05482 -0.116353,-0.07037 -0.04665,-0.01554 -0.101522,-0.02299 -0.16373,-0.02299 h -0.149097 c -0.06221,0 -0.11638,-0.0081 -0.163033,-0.02369 -0.04665,-0.01556 -0.08595,-0.03857 -0.117054,-0.06968 -0.0311,-0.0311 -0.05412,-0.07039 -0.06968,-0.117054 -0.01555,-0.04665 -0.02369,-0.100834 -0.02369,-0.163032 v -0.07454 c 0,-0.07464 -0.0092,-0.139794 -0.02787,-0.195778 -0.0093,-0.02799 -0.02084,-0.05401 -0.03484,-0.07734 -0.01399,-0.02332 -0.03011,-0.04405 -0.04876,-0.06271 -0.01866,-0.01866 -0.04007,-0.03547 -0.06341,-0.04947 -0.02332,-0.014 -0.04864,-0.02551 -0.07663,-0.03484 -0.05598,-0.01866 -0.121826,-0.02787 -0.196474,-0.02787 -0.07465,0 -0.139795,0.0092 -0.195779,0.02787 -0.02799,0.0093 -0.05331,0.02084 -0.07663,0.03484 -0.02332,0.01399 -0.04473,0.03081 -0.06341,0.04947 -0.01866,0.01866 -0.03477,0.03938 -0.04876,0.06271 -0.014,0.02332 -0.02551,0.04935 -0.03484,0.07734 -0.01866,0.05598 -0.02787,0.121139 -0.02787,0.195778 v 0.07454 c 0,0.03318 -0.0034,0.06415 -0.009,0.09266 -0.0057,0.02851 -0.01437,0.05419 -0.02578,0.07804 -0.01146,0.02385 -0.02539,0.04561 -0.0425,0.0648 -0.01711,0.01919 -0.0371,0.03635 -0.05992,0.05086 -0.04562,0.02904 -0.09519,0.05028 -0.149098,0.0648 -0.05392,0.01452 -0.111984,0.0223 -0.17418,0.0223 h -0.435451 l -0.01254,0.01186 h -0.09963 c -0.05392,-0.002 -0.105783,-0.008 -0.156065,-0.01881 -0.05029,-0.01092 -0.09896,-0.02628 -0.145615,-0.04599 -0.04665,-0.0197 -0.09144,-0.04394 -0.13446,-0.07245 -0.04302,-0.02853 -0.08461,-0.06159 -0.124024,-0.09893 -0.03732,-0.03939 -0.06954,-0.08029 -0.09755,-0.123323 -0.02799,-0.04302 -0.05171,-0.08781 -0.07037,-0.13446 -0.01866,-0.04665 -0.03246,-0.09533 -0.04181,-0.145615 -0.0093,-0.05028 -0.01394,-0.102857 -0.01394,-0.156762 v -0.77127 c 0,-0.07879 0.0067,-0.15386 0.02021,-0.226433 0.01348,-0.07258 0.03367,-0.142665 0.06062,-0.209018 0.02695,-0.06635 0.06059,-0.129376 0.101023,-0.189506 0.04043,-0.06013 0.08753,-0.116785 0.141434,-0.170698 0.05599,-0.05599 0.115274,-0.105014 0.176967,-0.147008 0.06168,-0.04198 0.125602,-0.07721 0.192992,-0.105203 0.06739,-0.02799 0.138015,-0.04871 0.211106,-0.06271 0.07309,-0.014 0.149035,-0.0216 0.227827,-0.0216 h 0.833278 c 0.04976,0 0.09808,0.0044 0.144221,0.01321 0.04614,0.0088 0.09056,0.02208 0.133071,0.03972 0.04251,0.01762 0.08305,0.03975 0.121921,0.06619 0.03888,0.02644 0.07553,0.05741 0.110785,0.09266 0.03526,0.03526 0.06622,0.0726 0.09266,0.111472 0.02644,0.03888 0.04856,0.07943 0.06619,0.121922 0.01762,0.04251 0.0309,0.08693 0.03972,0.13307 0.0088,0.04614 0.01321,0.09376 0.01321,0.143524 0,0.02903 0.0039,0.05487 0.01119,0.07663 0.0073,0.02177 0.01754,0.03983 0.03205,0.05435 0.01452,0.01451 0.03327,0.02479 0.05504,0.03205 0.02177,0.0073 0.04692,0.01119 0.07595,0.01119 h 0.211804 c 0.03526,0 0.06906,-0.0028 0.101724,-0.009 0.03265,-0.0062 0.06399,-0.01542 0.09405,-0.02787 0.03007,-0.0124 0.05892,-0.02802 0.08639,-0.04668 0.02748,-0.01866 0.05315,-0.04061 0.07804,-0.0655 0.02487,-0.02487 0.04684,-0.05126 0.0655,-0.07872 0.01866,-0.02748 0.03423,-0.05633 0.04668,-0.08639 0.0124,-0.03007 0.02165,-0.0614 0.02787,-0.09405 0.0062,-0.03265 0.0097,-0.06647 0.0097,-0.101724 0,-0.06635 0.0035,-0.130968 0.01187,-0.193689 0.0084,-0.06272 0.02103,-0.123445 0.03763,-0.182541 0.01658,-0.05909 0.03713,-0.116622 0.062,-0.17209 0.02489,-0.05547 0.05392,-0.109099 0.0871,-0.160943 l 2.363973,-3.943439 c 0.02074,-0.03732 0.04463,-0.07024 0.07107,-0.09823 0.02644,-0.02799 0.05565,-0.05102 0.08778,-0.06968 0.03214,-0.01866 0.06736,-0.03247 0.105203,-0.04181 0.03785,-0.0093 0.07839,-0.01463 0.121921,-0.01463 h 1.094547 c 0.07465,0 0.139795,-0.0092 0.195779,-0.02787 0.02799,-0.0093 0.05401,-0.02084 0.07734,-0.03484 0.02332,-0.014 0.04405,-0.03011 0.06271,-0.04877 0.01866,-0.01866 0.03547,-0.04007 0.04947,-0.06341 0.014,-0.02332 0.02551,-0.04864 0.03484,-0.07663 0.01866,-0.05598 0.02787,-0.12114 0.02787,-0.195778 0,-0.07465 -0.0092,-0.140492 -0.02787,-0.196476 -0.0093,-0.02799 -0.02084,-0.05331 -0.03484,-0.07663 -0.014,-0.02332 -0.03081,-0.04405 -0.04947,-0.06271 -0.01866,-0.01866 -0.03938,-0.03547 -0.06271,-0.04947 -0.02333,-0.014 -0.04935,-0.02551 -0.07734,-0.03484 -0.05598,-0.01866 -0.121139,-0.02787 -0.195779,-0.02787 h -1.156555 c -0.06635,0 -0.126546,-0.01065 -0.180451,-0.03135 -0.05392,-0.02074 -0.102062,-0.05189 -0.143525,-0.09336 l -0.522684,-0.535214 c -0.03732,-0.03526 -0.06973,-0.07367 -0.09823,-0.115652 -0.02851,-0.04198 -0.05276,-0.08714 -0.07245,-0.13586 -0.0197,-0.04872 -0.0351,-0.101293 -0.04599,-0.156762 -0.01092,-0.05547 -0.01743,-0.114061 -0.01951,-0.17627 -0.002,-0.03732 -0.0073,-0.07326 -0.01603,-0.107994 -0.0088,-0.03473 -0.02137,-0.06819 -0.03693,-0.100322 -0.01556,-0.03214 -0.03412,-0.06311 -0.05644,-0.09267 -0.0223,-0.02955 -0.04828,-0.05735 -0.07733,-0.08431 -0.02696,-0.02695 -0.05475,-0.05084 -0.08431,-0.07106 -0.02955,-0.02022 -0.06052,-0.03739 -0.09266,-0.05086 -0.03214,-0.01348 -0.0656,-0.02322 -0.100322,-0.02996 -0.03473,-0.0067 -0.07068,-0.01052 -0.107994,-0.01052 h -0.162336 c -0.05392,0 -0.103477,-0.0092 -0.149097,-0.02787 -0.04561,-0.01866 -0.08671,-0.04629 -0.124011,-0.0836 l -0.09964,-0.09963 c -0.03318,-0.0311 -0.06008,-0.06385 -0.08081,-0.09755 -0.02074,-0.03369 -0.03561,-0.06822 -0.0439,-0.104515 -0.0084,-0.03628 -0.01038,-0.07399 -0.0063,-0.112875 0.0042,-0.03888 0.01476,-0.07906 0.03135,-0.120532 0.01658,-0.04147 0.03659,-0.07759 0.05992,-0.108681 0.02332,-0.0311 0.05006,-0.0573 0.08013,-0.07804 0.03007,-0.02074 0.06353,-0.03631 0.100323,-0.04668 0.03681,-0.01038 0.07698,-0.01533 0.120532,-0.01533 h 1.29381 c 0.08708,0 0.171703,0.0067 0.253607,0.02021 0.08191,0.01348 0.160862,0.03367 0.237581,0.06062 0.07672,0.02695 0.150718,0.06059 0.222254,0.101023 0.07154,0.04043 0.140574,0.08753 0.206926,0.141435 l 3.446678,2.749259 c 0.103679,0.08293 0.211309,0.155869 0.323279,0.218074 0.111971,0.06221 0.228098,0.113899 0.34836,0.155368 0.100565,0.125453 0.198197,0.252599 0.293319,0.381803 0.09512,0.129202 0.187616,0.260684 0.277295,0.393647 0.08968,0.132964 0.176337,0.267377 0.260574,0.404098 0.08424,0.136722 0.165756,0.275464 0.244548,0.415943 0.07879,0.14048 0.155174,0.282852 0.228525,0.427089 0.07334,0.144239 0.143896,0.290242 0.211803,0.438238 0.06791,0.147996 0.133313,0.298327 0.195779,0.450082 0.06246,0.151753 0.122042,0.30502 0.179056,0.460532 0.05702,0.155512 0.110353,0.311874 0.160246,0.46959 0.0499,0.157715 0.09658,0.316638 0.139345,0.476557 0.04277,0.159918 0.08141,0.321402 0.117054,0.483524 0.03563,0.162122 0.06833,0.324774 0.09684,0.489098 0.02852,0.164325 0.05316,0.330235 0.07454,0.496762 0.02138,0.166527 0.0394,0.334302 0.05365,0.503033 0.01425,0.16873 0.02492,0.338368 0.03205,0.509303 6.75e-4,0.01614 8.8e-5,0.0326 6.97e-4,0.04877 z M 24.922543,14.848811 c -0.06531,0.002 -0.128029,0.0077 -0.188811,0.01672 -0.06078,0.009 -0.119333,0.02156 -0.175574,0.03763 -0.05625,0.01607 -0.110623,0.03615 -0.162336,0.05923 -0.0517,0.02307 -0.101226,0.04936 -0.148401,0.07942 -0.04717,0.03007 -0.09183,0.06326 -0.134473,0.100322 -0.04263,0.03706 -0.08313,0.07786 -0.121233,0.121921 -0.0381,0.04406 -0.07373,0.09178 -0.107293,0.142827 -0.03357,0.05106 -0.06503,0.105675 -0.09405,0.16373 l -0.422909,0.820737 c -0.01866,0.04147 -0.04078,0.07828 -0.06619,0.109382 -0.0254,0.0311 -0.05425,0.0566 -0.08639,0.07733 -0.03214,0.02074 -0.06772,0.03631 -0.106592,0.04668 -0.03888,0.01038 -0.08119,0.01533 -0.126802,0.01533 h -0.16164 c -0.05805,0 -0.114007,-0.01 -0.167909,-0.03066 -0.05392,-0.02074 -0.105608,-0.05189 -0.155368,-0.09337 -0.02488,-0.02074 -0.04665,-0.04286 -0.0648,-0.06619 -0.01815,-0.02332 -0.03249,-0.04793 -0.0439,-0.07386 -0.01146,-0.02591 -0.01973,-0.053 -0.02439,-0.08151 -0.0047,-0.02851 -0.0055,-0.05877 -0.0035,-0.08987 0.002,-0.0311 6.77e-4,-0.06085 -0.0035,-0.08987 -0.0042,-0.02903 -0.01119,-0.05735 -0.0216,-0.08431 -0.02074,-0.05392 -0.05407,-0.10349 -0.09963,-0.149099 -0.04563,-0.04562 -0.09519,-0.0796 -0.149098,-0.102412 -0.05392,-0.02281 -0.111984,-0.03414 -0.174181,-0.03414 h -1.356515 c 0.167954,-0.0705 0.337721,-0.137058 0.509303,-0.199261 0.171582,-0.06221 0.34524,-0.120263 0.520451,-0.174182 0.17521,-0.05392 0.352062,-0.103477 0.5309,-0.149097 0.17884,-0.04561 0.359582,-0.08739 0.542049,-0.124712 0.184542,-0.0394 0.370066,-0.07375 0.556681,-0.103814 0.186615,-0.03007 0.374261,-0.0559 0.562949,-0.07663 0.188689,-0.02074 0.37846,-0.03667 0.569222,-0.04808 0.190762,-0.01146 0.382655,-0.01813 0.575491,-0.02021 z m 1.467991,2.687252 c 0.07464,0 0.139794,0.0092 0.195778,0.02787 0.02799,0.0093 0.05401,0.02153 0.07734,0.03554 0.02332,0.014 0.04405,0.03011 0.06271,0.04877 0.01866,0.01866 0.03477,0.03938 0.04877,0.06271 0.014,0.02332 0.0262,0.04934 0.03553,0.07733 0.01866,0.05598 0.02787,0.121139 0.02787,0.195778 0,0.07464 0.0092,0.139794 0.02787,0.195778 0.0093,0.02799 0.02084,0.05401 0.03484,0.07734 0.01399,0.02332 0.03081,0.04405 0.04947,0.06271 0.01866,0.01866 0.03938,0.03477 0.06271,0.04877 0.02332,0.014 0.04864,0.0262 0.07663,0.03554 0.05598,0.01866 0.121826,0.02787 0.196474,0.02787 0.07465,0 0.139795,0.0092 0.195779,0.02787 0.02799,0.0093 0.05331,0.02084 0.07663,0.03484 0.02332,0.01399 0.04473,0.03081 0.06341,0.04947 0.01866,0.01866 0.03477,0.03938 0.04877,0.06271 0.014,0.02332 0.02551,0.04865 0.03484,0.07663 0.01866,0.05598 0.02857,0.121827 0.02857,0.196476 0,0.07464 -0.0098,0.139793 -0.02857,0.195777 -0.0093,0.02799 -0.02084,0.05331 -0.03484,0.07663 -0.014,0.02332 -0.03011,0.04473 -0.04877,0.06341 -0.01866,0.01866 -0.04007,0.03477 -0.06341,0.04877 -0.02332,0.01399 -0.04865,0.02551 -0.07663,0.03484 -0.05598,0.01866 -0.121139,0.02787 -0.195779,0.02787 -0.07464,0 -0.14049,0.0098 -0.196474,0.02857 -0.02799,0.0093 -0.05331,0.02084 -0.07663,0.03484 -0.02332,0.01399 -0.04405,0.03011 -0.06271,0.04876 -0.01866,0.01866 -0.03547,0.04007 -0.04947,0.06341 -0.01399,0.02332 -0.02551,0.04864 -0.03484,0.07663 -0.01866,0.05598 -0.02787,0.121139 -0.02787,0.195779 0,0.07465 -0.0092,0.14049 -0.02787,0.196474 -0.0093,0.02799 -0.02153,0.05331 -0.03553,0.07663 -0.014,0.02332 -0.03011,0.04405 -0.04877,0.06271 -0.01866,0.01866 -0.03938,0.03547 -0.06271,0.04947 -0.02332,0.014 -0.04935,0.02551 -0.07734,0.03484 -0.05598,0.01866 -0.121139,0.02787 -0.195778,0.02787 -0.07465,0 -0.139794,-0.0092 -0.195779,-0.02787 -0.02799,-0.0093 -0.05401,-0.02084 -0.07733,-0.03484 -0.02332,-0.01399 -0.04405,-0.03081 -0.06271,-0.04947 -0.01866,-0.01866 -0.03477,-0.03938 -0.04877,-0.06271 -0.01399,-0.02332 -0.02621,-0.04865 -0.03554,-0.07663 -0.01866,-0.05598 -0.02787,-0.121827 -0.02787,-0.196474 0,-0.07465 -0.0092,-0.139795 -0.02787,-0.195779 -0.0093,-0.02799 -0.02084,-0.05331 -0.03484,-0.07663 -0.01399,-0.02332 -0.03011,-0.04473 -0.04876,-0.06341 -0.01866,-0.01866 -0.04007,-0.03477 -0.06341,-0.04876 -0.02332,-0.014 -0.04864,-0.02551 -0.07663,-0.03484 -0.05598,-0.01866 -0.121827,-0.02857 -0.196474,-0.02857 h -0.895288 c -0.07464,0 -0.14049,-0.0092 -0.196474,-0.02787 -0.02799,-0.0093 -0.05331,-0.02084 -0.07663,-0.03484 -0.02332,-0.014 -0.04405,-0.03011 -0.06271,-0.04877 -0.01866,-0.01866 -0.03547,-0.04007 -0.04947,-0.06341 -0.014,-0.02332 -0.02551,-0.04864 -0.03484,-0.07663 -0.01866,-0.05598 -0.02787,-0.121139 -0.02787,-0.195777 0,-0.07465 0.0092,-0.140492 0.02787,-0.196476 0.0093,-0.02799 0.02084,-0.05331 0.03484,-0.07663 0.01399,-0.02332 0.03081,-0.04405 0.04947,-0.06271 0.01866,-0.01866 0.03938,-0.03547 0.06271,-0.04947 0.02332,-0.014 0.04864,-0.02551 0.07663,-0.03484 0.05598,-0.01866 0.121827,-0.02787 0.196474,-0.02787 h 0.895288 c 0.07465,0 0.14049,-0.0092 0.196474,-0.02787 0.02799,-0.0093 0.05331,-0.02153 0.07663,-0.03554 0.02332,-0.014 0.04473,-0.03011 0.06341,-0.04877 0.01866,-0.01866 0.03477,-0.03938 0.04876,-0.06271 0.014,-0.02332 0.02551,-0.04935 0.03484,-0.07734 0.01866,-0.05598 0.02787,-0.121139 0.02787,-0.195778 0,-0.07465 0.0092,-0.139794 0.02787,-0.195778 0.0093,-0.02799 0.02153,-0.05401 0.03554,-0.07733 0.014,-0.02332 0.03011,-0.04405 0.04877,-0.06271 0.01866,-0.01866 0.03938,-0.03477 0.06271,-0.04877 0.02332,-0.01399 0.04934,-0.0262 0.07733,-0.03554 0.05598,-0.01866 0.12114,-0.02787 0.195779,-0.02787 z"
       id="path12"
       style="stroke-width:1.348;stroke-dasharray:none;fill:#ffffff;fill-opacity:1" />
    <path
       style="fill:#ffffff;stroke-width:1.05833;fill-opacity:1"
       d="M 6.917,18.083 24.917001,33.082998 V 36.69647 L 6.917,21.696471 Z m 36.006,0 -18.000001,14.999998 V 36.69647 L 42.923,21.696471 Z"
       id="path2-2"
       transform="matrix(1.1967353,0,0,1.1967353,-4.7380047,1.73373)"
       sodipodi:nodetypes="ccccc"
       inkscape:original-d="M 6.917,18.083 24.917001,33.082998 V 36.69647 L 6.917,21.696471 Z"
       inkscape:path-effect="#path-effect13-7" />
    <circle
       style="fill:none;fill-opacity:1;stroke:#ffffff;stroke-width:2.924;stroke-dasharray:none;stroke-opacity:1"
       id="path13"
       cx="24.834381"
       cy="25"
       r="20.446848" />
  </g>
</svg>
